PathFileType	4	(X/Y/Z)	D:\Share\Shared_Data\Ergonomics\Sit To Stand Pertubation\S1\Unperturbed_NoHarness.trc
DataRate	CameraRate	NumFrames	NumMarkers	Units	OrigDataRate	OrigDataStartFrame	OrigNumFrames	
100	100	9	18	m	100	3043	261
Frame#	Time	R_Thigh_Med			R_ASIS			R_Pelvis			V_Sacral			L_Pelvis			L_ASIS			Clavical			R_Acromium			L_Acromium			Sternum			Torso			R_Thigh_Lat			R_Thigh			R_Shank_Med			R_Shank_Lat			R_Shank			R_Heel			R_Toe			
		X1	Y1	Z1	X2	Y2	Z2	X3	Y3	Z3	X4	Y4	Z4	X5	Y5	Z5	X6	Y6	Z6	X7	Y7	Z7	X8	Y8	Z8	X9	Y9	Z9	X10	Y10	Z10	X11	Y11	Z11	X12	Y12	Z12	X13	Y13	Z13	X14	Y14	Z14	X15	Y15	Z15	X16	Y16	Z16	X17	Y17	Z17	X18	Y18	Z18	

3043	30.42	0.33791809	0.41102768	0.0066619415	0.052460632	0.63098029	0.087129051	-0.031655043	0.633922	0.1233236	-0.13722528	0.56367053	-0.009934309	-0.036512287	0.63013782	-0.15280641	0.062392982	0.64114722	-0.11341148	0.16163281	0.93391833	-0.015717547	0.12568255	1.0208249	0.13414932	0.058911674	0.99892871	-0.21030051	0.14915479	0.94987329	0.086593536	0.15914069	0.94250513	-0.074616592	0.33829813	0.43247745	0.12831319	0.21158478	0.54931976	0.08098317	0.31902829	0.095082733	0.067218422	0.29335571	0.10041436	0.14595726	0.32015903	0.31079831	0.15027304	0.24464709	0.033154903	0.091804344	0.44928183	0.051880589	0.12155393
3044	30.43	0.33755087	0.41088519	0.006642312	0.053086605	0.63024023	0.087279732	-0.031022348	0.63399707	0.12330066	-0.13689442	0.56401685	-0.0099690781	-0.035734333	0.63029669	-0.15271536	0.063601727	0.64067212	-0.11333916	0.16638824	0.93174182	-0.015525291	0.13146526	1.0192336	0.13436125	0.064022873	0.99814313	-0.20998531	0.15401941	0.94797284	0.08685611	0.16391119	0.94072485	-0.074339348	0.33831351	0.43245111	0.12827916	0.21162083	0.54917645	0.081007088	0.31894141	0.095064255	0.067217079	0.29331247	0.10041985	0.14593999	0.32014215	0.31080661	0.15026834	0.24463332	0.033130726	0.091802353	0.44925632	0.051909924	0.12155701
3045	30.44	0.33721182	0.41074963	0.0066120229	0.053695541	0.62938525	0.087459602	-0.030333441	0.6340705	0.12328901	-0.13652498	0.56439911	-0.010002528	-0.034859554	0.63046759	-0.15260977	0.064873421	0.64017999	-0.11324625	0.17141663	0.9292998	-0.015334835	0.1375808	1.0175277	0.13457454	0.069378731	0.99726447	-0.2096371	0.15917726	0.94596478	0.087128159	0.16891678	0.9388158	-0.074049995	0.33832626	0.43242178	0.12823264	0.21166087	0.54903412	0.081014778	0.31885837	0.095046532	0.067215897	0.29326392	0.10042538	0.14592377	0.32012363	0.31081641	0.15025525	0.24461768	0.033103817	0.091802284	0.4492247	0.051939526	0.12156016
3046	30.45	0.33694888	0.41063971	0.0065749769	0.054279354	0.62842462	0.087670288	-0.029579578	0.6341413	0.12328924	-0.13611627	0.5648208	-0.010024286	-0.033887867	0.6306521	-0.15248424	0.066181618	0.6396828	-0.11313465	0.17672263	0.92656757	-0.015144906	0.14403668	1.0157019	0.13478564	0.074997063	0.99628333	-0.20926337	0.16463063	0.94383911	0.087412163	0.17416512	0.9367688	-0.073743889	0.33833603	0.43238855	0.12817274	0.211703	0.54890063	0.081003792	0.31878177	0.095030258	0.067217941	0.29320755	0.10042995	0.1459119	0.32010352	0.31082471	0.15023431	0.24459798	0.033071831	0.091805168	0.44918607	0.051970539	0.12156227
3047	30.46	0.33679205	0.41057324	0.0065379615	0.054851147	0.62739221	0.087910439	-0.028746208	0.63421039	0.12329845	-0.13566602	0.56528552	-0.010026836	-0.032817787	0.63085162	-0.15233391	0.067501633	0.63919269	-0.11301089	0.18230391	0.92355627	-0.014952484	0.15082497	1.0137516	0.13498903	0.080896042	0.99519189	-0.20887447	0.17037843	0.94158557	0.087709442	0.17966411	0.93457379	-0.07341671	0.33834369	0.43234955	0.12809941	0.2117471	0.54878418	0.080972748	0.31871045	0.095015244	0.067227028	0.2931391	0.10043272	0.14590825	0.3200824	0.31082816	0.15020686	0.24457167	0.033032131	0.091811989	0.44913889	0.052005402	0.12156264
3048	30.47	0.33676614	0.41057126	0.006510818	0.055450993	0.62634186	0.088175293	-0.027815107	0.63428003	0.12331279	-0.13516937	0.56579688	-0.010006098	-0.031644192	0.63106653	-0.15215504	0.068817764	0.63871844	-0.11288274	0.18815189	0.92032971	-0.014752401	0.15791768	1.0116699	0.13517845	0.087093826	0.99398431	-0.20848257	0.17641626	0.93919458	0.088019089	0.18542143	0.93222131	-0.073064674	0.33835187	0.43230164	0.12801421	0.2117963	0.54869189	0.08092112	0.3186387	0.095000107	0.067247276	0.29305243	0.10043249	0.14591705	0.32006143	0.31082333	0.15017526	0.24453615	0.032981903	0.091823708	0.44908084	0.05204744	0.12156134
3049	30.48	0.33689828	0.41065909	0.0065060682	0.056146118	0.62532062	0.088457245	-0.026767275	0.63434949	0.12332977	-0.13461725	0.56636047	-0.0099599123	-0.030356411	0.6312962	-0.15194463	0.070132233	0.6382594	-0.11275443	0.19425697	0.91698267	-0.014538211	0.16527693	1.0094493	0.13534828	0.093605675	0.99265808	-0.20810196	0.18273505	0.93665875	0.088337967	0.19144244	0.92970233	-0.072685989	0.33836548	0.43224033	0.12792049	0.21185666	0.54862677	0.080849396	0.31855734	0.094982315	0.06728212	0.29294135	0.10042738	0.14594252	0.32004309	0.3108071	0.15014255	0.24448904	0.032918251	0.091840965	0.44900897	0.052100269	0.12155961
3050	30.49	0.3372182	0.41086389	0.0065374885	0.057021286	0.62434656	0.088745522	-0.025581472	0.63441357	0.1233474	-0.13399478	0.56698694	-0.0098872395	-0.028937458	0.6315415	-0.15170041	0.07146978	0.63780316	-0.11262623	0.20061461	0.9135882	-0.014303431	0.17287863	1.0070866	0.13549294	0.10044135	0.99121368	-0.20774747	0.1893195	0.93397406	0.088661278	0.19772791	0.92700922	-0.072281921	0.33839194	0.43216119	0.1278232	0.21193602	0.54858655	0.080760162	0.31845615	0.094958794	0.067333344	0.29280142	0.1004147	0.14598802	0.32003156	0.31077698	0.15011253	0.24442877	0.032838078	0.091863922	0.4489205	0.052167542	0.12155961
3051	30.5	0.33774985	0.41120682	0.006617023	0.058157928	0.62341602	0.089028221	-0.024229963	0.63446423	0.12336253	-0.13328055	0.56769202	-0.0097893496	-0.027364294	0.63180463	-0.15142145	0.07287355	0.6373277	-0.11249799	0.20722414	0.91017297	-0.014042106	0.18072369	1.0045847	0.13560664	0.1076036	0.98965485	-0.2074315	0.19614844	0.93114075	0.088982712	0.20427417	0.92413715	-0.07185553	0.33844138	0.43206042	0.12772829	0.21204477	0.54856305	0.080660141	0.31832733	0.094926956	0.06740033	0.29263202	0.1003913	0.14605479	0.32003366	0.31073178	0.15008911	0.244355	0.032738258	0.09189257	0.44881458	0.05225285	0.12156372
